<svg 
          width="5.3594818115234375" 
          height="11.165771484375" fill="none" 
          xmlns="http://www.w3.org/2000/svg">
          <path d="M 0.23802221766067905 0.29376202044419036 C 0.16257020798061084 0.3862755990831395 0.10270938063990054 0.49616416866977875 0.06186637155201945 0.6171373887299332 C 0.02102336246413835 0.7381106087900876 -1.4457881269683968e-15 0.8677929533392391 0 0.9987612519900845 C -1.4457881269683968e-15 1.1297295506409297 0.02102336246413835 1.2594119547946703 0.06186637155201945 1.3803851748548246 C 0.10270938063990054 1.501358394914979 0.16257020798061084 1.6112469943039125 0.23802221766067905 1.7037605729428618 L 3.395978206490986 5.58375692285705 L 0.23802221766067905 9.463753391980415 C 0.08583993981914259 9.650730841205357 0.00034463350608622697 9.904325657098676 0.00034463350608622697 10.168751699655182 C 0.00034463350608622697 10.433177742211688 0.08583993981914259 10.686775419125269 0.23802221766067905 10.873752868350211 C 0.3902044955022155 11.060730317575153 0.5966078988196669 11.165771484374996 0.811826138471983 11.165771484375 C 1.0270443781242993 11.165771484375 1.2334477814417504 11.060730317575153 1.3856300592832869 10.873752868350211 L 5.121460370064349 6.283756074462001 C 5.196912379744417 6.191242495823052 5.256773207085127 6.081353896434118 5.297616216173008 5.960380676373964 C 5.338459225260889 5.839407456313809 5.3594818115234375 5.709725111764659 5.3594818115234375 5.578756813113813 C 5.3594818115234375 5.447788514462967 5.338459225260889 5.318106169913816 5.297616216173008 5.197132949853661 C 5.256773207085127 5.076159729793507 5.196912379744417 4.966271130404574 5.121460370064349 4.873757551765625 L 1.3856300592832869 0.2837618009577175 C 1.0763456468453958 -0.09623783725828927 0.5554456859238937 -0.09623759883993416 0.23802221766067905 0.29376202044419036 Z" fill="rgb(0,0,0)"/>
        </svg>